<svg width="55" height="36" viewBox="0 0 55 36" fill="none" xmlns="http://www.w3.org/2000/svg">
<path d="M5.55 35H7.07805e-08L8.45 0.749997H19.5L28 35H22.4L20.55 27.65H7.4L5.55 35ZM15.25 5.4H12.75L8.5 22.75H19.45L15.25 5.4ZM44.3816 35.55C41.8816 35.55 39.7983 35.2167 38.1316 34.55C36.4983 33.8833 35.1816 32.8333 34.1816 31.4C33.215 29.9667 32.5316 28.1333 32.1316 25.9C31.7316 23.6333 31.5316 20.9167 31.5316 17.75C31.5316 14.5833 31.7316 11.9 32.1316 9.7C32.5316 7.46667 33.215 5.65 34.1816 4.25C35.1816 2.85 36.4983 1.83333 38.1316 1.2C39.7983 0.533331 41.8816 0.199998 44.3816 0.199998C45.8816 0.199998 47.4316 0.299998 49.0316 0.499997C50.665 0.699999 52.3816 1.01667 54.1816 1.45L53.9816 5.95C51.0816 5.41667 48.0816 5.15 44.9816 5.15C43.4816 5.15 42.2316 5.35 41.2316 5.75C40.265 6.15 39.4816 6.85 38.8816 7.85C38.2816 8.81667 37.865 10.1167 37.6316 11.75C37.3983 13.35 37.2816 15.3833 37.2816 17.85C37.2816 20.3167 37.3983 22.3667 37.6316 24C37.865 25.6333 38.265 26.95 38.8316 27.95C39.3983 28.9167 40.165 29.6 41.1316 30C42.1316 30.4 43.3816 30.6 44.8816 30.6C47.915 30.6 50.9483 30.35 53.9816 29.85L54.1316 34.45C50.765 35.1833 47.515 35.55 44.3816 35.55Z" fill="white" fill-opacity="0.8"/>
</svg>
